HIERARCHY
ROOT Hips
{
	OFFSET -14.64140 90.27770 -84.91600
	CHANNELS 6 Xposition Yposition Zposition Zrotation Xrotation Yrotation
	JOINT Spine
	{
		OFFSET 0.00000 13.20850 -1.60436
		CHANNELS 3 Zrotation Xrotation Yrotation
		JOINT Spine1
		{
			OFFSET 0.00000 8.61716 0.00000
			CHANNELS 3 Zrotation Xrotation Yrotation
			JOINT Spine2
			{
				OFFSET 0.00000 8.61717 0.00000
				CHANNELS 3 Zrotation Xrotation Yrotation
				JOINT Spine3
				{
					OFFSET 0.00000 8.61717 0.00000
					CHANNELS 3 Zrotation Xrotation Yrotation
					JOINT Neck
					{
						OFFSET 0.00000 11.07920 1.10792
						CHANNELS 3 Zrotation Xrotation Yrotation
						JOINT Neck1
						{
							OFFSET 0.00000 7.08032 0.00000
							CHANNELS 3 Zrotation Xrotation Yrotation
							JOINT Head
							{
								OFFSET 0.00000 7.08031 0.00000
								CHANNELS 3 Zrotation Xrotation Yrotation
								End site
								{
									OFFSET 0.00000 0.00000 0.00000
								}
							}
						}
					}
					JOINT RightShoulder
					{
						OFFSET -0.01000 7.91373 5.19711
						CHANNELS 3 Zrotation Xrotation Yrotation
						JOINT RightArm
						{
							OFFSET -18.41580 0.00000 0.00000
							CHANNELS 3 Zrotation Xrotation Yrotation
							JOINT RightForeArm
							{
								OFFSET -29.11090 0.00000 0.00000
								CHANNELS 3 Zrotation Xrotation Yrotation
								JOINT RightHand
								{
									OFFSET -24.65040 0.00000 0.00000
									CHANNELS 3 Zrotation Xrotation Yrotation
									JOINT RightHandThumb1
									{
										OFFSET -5.35114 -0.85590 3.97906
										CHANNELS 3 Zrotation Xrotation Yrotation
										JOINT RightHandThumb2
										{
											OFFSET -4.52789 0.00000 0.00000
											CHANNELS 3 Zrotation Xrotation Yrotation
											JOINT RightHandThumb3
											{
												OFFSET -2.46976 0.00000 0.00000
												CHANNELS 3 Zrotation Xrotation Yrotation
												End site
												{
													OFFSET 0.00000 0.00000 0.00000
												}
											}
										}
									}
									JOINT RightHandIndex1
									{
										OFFSET -14.26970 0.00000 2.88139
										CHANNELS 3 Zrotation Xrotation Yrotation
										JOINT RightHandIndex2
										{
											OFFSET -5.48836 0.00000 0.00000
											CHANNELS 3 Zrotation Xrotation Yrotation
											JOINT RightHandIndex3
											{
												OFFSET -3.01859 0.00000 0.00000
												CHANNELS 3 Zrotation Xrotation Yrotation
												End site
												{
													OFFSET 0.00000 0.00000 0.00000
												}
											}
										}
									}
									JOINT RightHandMiddle1
									{
										OFFSET -14.26970 0.00000 -0.09147
										CHANNELS 3 Zrotation Xrotation Yrotation
										JOINT RightHandMiddle2
										{
											OFFSET -6.17441 0.00000 0.00000
											CHANNELS 3 Zrotation Xrotation Yrotation
											JOINT RightHandMiddle3
											{
												OFFSET -3.56743 0.00000 0.00000
												CHANNELS 3 Zrotation Xrotation Yrotation
												End site
												{
													OFFSET 0.00000 0.00000 0.00000
												}
											}
										}
									}
									JOINT RightHandRing1
									{
										OFFSET -12.69180 0.00000 -3.06433
										CHANNELS 3 Zrotation Xrotation Yrotation
										JOINT RightHandRing2
										{
											OFFSET -5.62556 0.00000 0.00000
											CHANNELS 3 Zrotation Xrotation Yrotation
											JOINT RightHandRing3
											{
												OFFSET -3.56744 0.00000 0.00000
												CHANNELS 3 Zrotation Xrotation Yrotation
												End site
												{
													OFFSET 0.00000 0.00000 0.00000
												}
											}
										}
									}
									JOINT RightHandPinky1
									{
										OFFSET -11.11390 0.00000 -6.03719
										CHANNELS 3 Zrotation Xrotation Yrotation
										JOINT RightHandPinky2
										{
											OFFSET -4.52789 0.00000 0.00000
											CHANNELS 3 Zrotation Xrotation Yrotation
											JOINT RightHandPinky3
											{
												OFFSET -2.46976 0.00000 0.00000
												CHANNELS 3 Zrotation Xrotation Yrotation
												End site
												{
													OFFSET 0.00000 0.00000 0.00000
												}
											}
										}
									}
								}
							}
						}
					}
					JOINT LeftShoulder
					{
						OFFSET 0.01000 7.91373 5.19711
						CHANNELS 3 Zrotation Xrotation Yrotation
						JOINT LeftArm
						{
							OFFSET 18.41580 0.00000 0.00000
							CHANNELS 3 Zrotation Xrotation Yrotation
							JOINT LeftForeArm
							{
								OFFSET 29.11090 0.00000 0.00000
								CHANNELS 3 Zrotation Xrotation Yrotation
								JOINT LeftHand
								{
									OFFSET 24.65040 0.00000 0.00000
									CHANNELS 3 Zrotation Xrotation Yrotation
									JOINT LeftHandThumb1
									{
										OFFSET 5.35114 -0.85590 3.97906
										CHANNELS 3 Zrotation Xrotation Yrotation
										JOINT LeftHandThumb2
										{
											OFFSET 4.52789 0.00000 0.00000
											CHANNELS 3 Zrotation Xrotation Yrotation
											JOINT LeftHandThumb3
											{
												OFFSET 2.46977 0.00000 0.00000
												CHANNELS 3 Zrotation Xrotation Yrotation
												End site
												{
													OFFSET 0.00000 0.00000 0.00000
												}
											}
										}
									}
									JOINT LeftHandIndex1
									{
										OFFSET 14.26970 0.00000 2.88139
										CHANNELS 3 Zrotation Xrotation Yrotation
										JOINT LeftHandIndex2
										{
											OFFSET 5.48836 0.00000 0.00000
											CHANNELS 3 Zrotation Xrotation Yrotation
											JOINT LeftHandIndex3
											{
												OFFSET 3.01859 0.00000 0.00000
												CHANNELS 3 Zrotation Xrotation Yrotation
												End site
												{
													OFFSET 0.00000 0.00000 0.00000
												}
											}
										}
									}
									JOINT LeftHandMiddle1
									{
										OFFSET 14.26970 0.00000 -0.09147
										CHANNELS 3 Zrotation Xrotation Yrotation
										JOINT LeftHandMiddle2
										{
											OFFSET 6.17440 0.00000 0.00000
											CHANNELS 3 Zrotation Xrotation Yrotation
											JOINT LeftHandMiddle3
											{
												OFFSET 3.56744 0.00000 0.00000
												CHANNELS 3 Zrotation Xrotation Yrotation
												End site
												{
													OFFSET 0.00000 0.00000 0.00000
												}
											}
										}
									}
									JOINT LeftHandRing1
									{
										OFFSET 12.69180 0.00000 -3.06433
										CHANNELS 3 Zrotation Xrotation Yrotation
										JOINT LeftHandRing2
										{
											OFFSET 5.62556 0.00000 0.00000
											CHANNELS 3 Zrotation Xrotation Yrotation
											JOINT LeftHandRing3
											{
												OFFSET 3.56744 0.00000 0.00000
												CHANNELS 3 Zrotation Xrotation Yrotation
												End site
												{
													OFFSET 0.00000 0.00000 0.00000
												}
											}
										}
									}
									JOINT LeftHandPinky1
									{
										OFFSET 11.11390 0.00000 -6.03719
										CHANNELS 3 Zrotation Xrotation Yrotation
										JOINT LeftHandPinky2
										{
											OFFSET 4.52789 0.00000 0.00000
											CHANNELS 3 Zrotation Xrotation Yrotation
											JOINT LeftHandPinky3
											{
												OFFSET 2.46976 0.00000 0.00000
												CHANNELS 3 Zrotation Xrotation Yrotation
												End site
												{
													OFFSET 0.00000 0.00000 0.00000
												}
											}
										}
									}
								}
							}
						}
					}
					JOINT pCube4
					{
						OFFSET 0.00000 10.91090 1.10792
						CHANNELS 3 Zrotation Xrotation Yrotation
						End site
						{
							OFFSET 0.00000 0.00000 0.00000
						}
					}
				}
			}
		}
	}
	JOINT RightUpLeg
	{
		OFFSET -9.98441 0.00000 0.00000
		CHANNELS 3 Zrotation Xrotation Yrotation
		JOINT RightLeg
		{
			OFFSET 0.00000 -42.11790 0.00000
			CHANNELS 3 Zrotation Xrotation Yrotation
			JOINT RightFoot
			{
				OFFSET 0.00000 -45.00020 -0.00001
				CHANNELS 3 Zrotation Xrotation Yrotation
				JOINT RightForeFoot
				{
					OFFSET 0.00000 -3.74820 0.00000
					CHANNELS 3 Zrotation Xrotation Yrotation
					JOINT RightToeBase
					{
						OFFSET 0.00000 0.06325 14.43120
						CHANNELS 3 Zrotation Xrotation Yrotation
						End site
						{
							OFFSET 0.00000 0.00000 0.00000
						}
					}
				}
			}
		}
	}
	JOINT LeftUpLeg
	{
		OFFSET 9.98441 0.00000 0.00000
		CHANNELS 3 Zrotation Xrotation Yrotation
		JOINT LeftLeg
		{
			OFFSET 0.00000 -42.11800 0.00000
			CHANNELS 3 Zrotation Xrotation Yrotation
			JOINT LeftFoot
			{
				OFFSET 0.00000 -45.00070 0.00000
				CHANNELS 3 Zrotation Xrotation Yrotation
				JOINT LeftForeFoot
				{
					OFFSET 0.00000 -3.74824 0.00000
					CHANNELS 3 Zrotation Xrotation Yrotation
					JOINT LeftToeBase
					{
						OFFSET 0.00000 0.06325 14.43110
						CHANNELS 3 Zrotation Xrotation Yrotation
						End site
						{
							OFFSET 0.00000 0.00000 0.00000
						}
					}
				}
			}
		}
	}
}
MOTION
Frames: 4
Frame Time: 0.050000
0.0021225533017275636 -0.00694978498634745 -0.0031136962229741877 -0.017307230455780725 -0.008587046346703394 -0.04195056485420586 5.753780153977799 2.0333471160104533 -2.46852472851114 -0.6717020455029278 3.5502820584755357 0.31760684706576175 -0.5083085459214998 -1.5575885876736837 0.34096611626812706 -0.683963463213063 -0.5650165474112991 -0.2716235621674235 -0.384869467193758 15.011897409494107 -0.21630020325316412 0.3886633977841326 0.8797225590847549 1.0247089008229444 0.4515448274577919 -14.905314781781597 0.09832937396049314 -12.892289226353654 4.181283641157524 -18.24310058818594 81.06314166096075 -6.5967454426155 22.066703017910314 33.98822134117471 12.30089773818868 95.07257398525975 14.529622106570004 -0.562860500956907 -6.290145383025574 4.5078812652026645 -0.07814452348269746 -1.56204465438098 0.013789621117729505 -0.02915479348907182 -56.2350636444341 -0.04470804148481788 -0.02887950732601707 -56.26782858703372 -38.786208252882325 -0.019140579688330144 -0.014864651889071157 0.03586616358486692 0.030507977324934082 0.045610728991157645 -0.015594332747621342 -0.007433468824624483 -0.005464060329658894 -36.69314797327706 -0.00815560861927914 0.041928505712398645 0.04596527656082334 0.020375736693393695 -0.03387204666733473 -0.01802834817917365 -0.007683679547719455 -0.0065544321845460414 -19.776343272892166 0.03566839598006858 -0.01934698659605023 -0.012024747432596017 0.03338581710390495 -0.0483459708973631 0.018237703225091308 -0.02187771794409363 -0.04091207264889622 24.079734654110283 -0.011380130902497268 -0.04238609852747132 28.841845447890943 -0.029244342176414313 -0.03168964389885079 28.912644940937728 0.01807721891481077 0.02396791261235958 14.48704884970756 3.1253313212088565 15.194805883654663 -71.71319752211049 6.6759690353312715 -29.891633158478264 -39.64735109372506 16.722179404582015 -92.25199266621998 -24.70137679023122 -7.784217427026945 4.90673016452949 -0.43358014752565005 0.06307173786387668 -8.118467604567153 0.032023747206915705 0.016996562745972547 44.543631645216415 -0.0026029418319247133 0.00255512822844612 44.54171246397562 12.46284811525358 0.036942891549113 -0.007239144337462389 -0.033717820183608575 0.028269298771499092 0.022885816475344403 0.00411166290049401 0.014102210105859138 -0.020834569174403277 11.098349176331984 0.032340188242686696 0.008171113520124798 -0.012653224871502859 -0.027445730922777002 0.04333773360397749 0.023402635384742073 0.0019781128260988635 0.012107500982852933 4.796298228559691 0.04041027564692876 -0.025365864374574484 0.04358153589977422 -0.003351502309168044 -0.04565398930871889 0.007248568077321161 0.03197088899187777 -0.01961450531749861 -5.562249309352897 0.005309199557004391 0.04572279726888789 -6.702018671887925 -0.014807955548796941 0.0037189564680415233 -6.693227111826764 0.01199365461235981 0.017518114959691404 -0.016551234719964777 0.04850659962642541 0.026132851618657756 8.033830167373637 3.4515820486683886 -19.23933571903762 0.01588392653730243 10.392209217099376 0.039539451861531794 -5.66655413107551 -15.62695407277368 3.183281077526652 -0.035012354118475524 -0.0004764764545029148 -0.00037507782032569596 -0.0018348295383268987 4.698923894486081 0.026613753099354792 12.438238224279287 -8.248603884312594 6.91191141346682 -0.01831349896738087 46.40019773926309 -0.0017056598291498306 -4.3294082167937 -14.709101957703506 -3.8481987288939306 -0.042011601039639815 -0.04706901260857174 -0.026908536299193705 -0.0344768946068344 -10.76172246722733 0.04311656338058234 
-0.0056663063249694275 0.027131824925483536 0.028805994880035657 -0.048058674312398034 0.020842566256685346 0.04698306072096138 5.80366796305405 1.9426859809261119 -2.476521186584437 -0.7038556149957386 3.4942333432390162 0.32030036459386957 -0.5033221161938877 -1.5811781386229373 0.34534611645284163 -0.7019407664177935 -0.5873460355793096 -0.2824481532657162 -0.4083988161606222 15.084233792287458 -0.19224774088168017 0.44746367548717997 0.8054359404403686 1.0571394330560608 0.4652414423981131 -14.939134417126104 0.08197908308986314 -12.963586689272278 4.169411878807476 -18.164946902385857 81.6432510768845 -5.207670177720173 22.47695963937315 35.598989625474935 12.2843483853271 95.60581097780882 15.173550289976198 -0.5664864881056335 -6.9182015985239875 4.5602502171247465 -0.10241903577210623 -1.6272557092181017 -0.004967500157770592 0.0013045425886855147 -56.256694677389895 0.031013065506159072 -0.031886504476202136 -56.224832349049336 -38.766896845413505 -0.010042230301078602 0.011028692548486171 0.034712879466992495 0.038637197489599144 -0.002645090263915096 0.04134727380341458 0.008643213002564461 0.02443732963823487 -36.739381088457876 -0.017469657836928897 -0.00881637255931638 0.03530902626962676 -0.039881553023047196 -0.038637078737226 -0.015988174849929496 0.04227268757979642 0.029467551569065137 -19.7590760098919 -0.0473742623406884 0.006940734632179779 0.015675278713199372 0.042029965868963 -0.0017949189717552617 0.03364742760033907 0.0040674135775711365 0.042066466469578866 24.015203136218176 -0.03701030270666889 0.02163381080683783 28.895128401481976 0.048349861961837326 -0.026143744917113184 28.8954447944699 0.022987417962454973 0.03689537485289034 14.50046856630116 3.182221468547756 15.099348660121006 -72.05961452789738 7.7607843125151925 -30.18057513658318 -40.36888752654375 16.652155620174803 -92.14080042761375 -25.827037500346414 -8.881105941750917 6.031509156382787 -0.44642930506363726 0.06662585602764162 -8.167122348673619 0.0030852245364733615 0.0007333727757714452 44.53130653040343 -0.008520048611766112 -0.04794484980798155 44.56688741552568 12.448113085605858 0.014547014374029518 -0.006960423342542645 0.006132058004525814 0.015746760175541157 8.952558485842405e-05 -0.034368895553977055 0.04892585467940169 0.02108069376240479 11.090682667296965 -0.03784211417311824 0.0013133405045674458 -0.03506291387968543 0.012623657923613796 0.008797257586091215 0.0224220045587899 -0.03074309880396649 0.04763073044417702 4.798506878751699 0.021311052319950945 0.03588346604341003 0.04815146061483136 -0.031047534508243064 0.00992216710616649 0.02410393624641136 0.005562286505807645 -0.03772408646402235 -5.6343730740221725 9.855808951541479e-05 0.004059563704263656 -6.714198196809913 -0.004383234688631951 -0.010948479058307904 -6.722705777651212 -0.008617523359977251 -0.020267227602657898 -0.01424617248058479 -0.007352665271188102 -0.03631765513250375 8.007316644468974 3.499231206117281 -19.253496835733067 0.023105746596465696 10.402112964580555 0.06294618863137223 -5.598394438670838 -15.624850331435084 3.158984786728968 0.04354148266799097 0.020173943263249436 0.000570402511869996 0.004949261452154121 4.722349045457335 -0.002321449303283836 12.45789093954349 -8.240110965261113 6.83326612562521 0.03036404529886248 46.33872358581604 -0.027993341105606327 -4.302857990048589 -14.701430151112705 -3.826550459692511 -0.006542972492680505 -0.0035327838315866627 -0.04004174906667728 -0.043463792764033865 -10.760344747126052 0.011618458947798808 
0.009115927279257285 -0.044921302197945295 -0.0002678678277627528 0.02171475340843678 -0.03957158256994536 0.04471952420789748 5.944186529248559 1.9544213303090576 -2.422141405279504 -0.6205974872996738 3.4714244062183526 0.4016653971654451 -0.48420229544324794 -1.5291205061847617 0.29788062769989254 -0.6725208108086901 -0.4956205074193197 -0.28628478080896647 -0.4491792413261088 15.013655367548171 -0.2183497202858301 0.38525033979376566 0.8206764849561236 0.990880340751651 0.48140042142710326 -15.05269154511404 0.07272779284058638 -12.834114606694596 4.114896278867589 -18.014152864374843 82.01895626819166 -3.0956646030878354 22.329977595941592 36.66956267957327 12.138848160000205 95.76445544928289 15.75449539053747 -0.6226675944006576 -7.573884322943682 4.545241944837533 -0.08984187390688689 -1.6123929558041405 0.03837136424917697 0.03050462542912066 -56.23638794069966 0.004546859078173268 0.041608492697497036 -56.27544975168891 -38.815931313544745 0.03527640611952863 -0.007098466208513152 0.007430397336531917 -0.036488839054793845 -0.012964199640173651 0.004289351718864367 0.020708182790903775 -0.03913920351378871 -36.69989991668945 -0.04559946067903317 0.012066825977114032 0.04660496252327615 0.012871883388884009 0.030495858835205735 -0.049925848000829075 -0.04662030877820106 -0.04115606710474844 -19.755413675751996 -0.018706814864819735 0.019836004070349182 0.0003169099553145876 0.04747579470951381 -0.003753147394385321 0.0040718709073779315 -0.022940360180416775 0.027836706122145536 24.04339212574245 0.031282715587450584 -0.04979206969845239 28.82479338577647 -0.0007476268931930215 0.04149529476296929 28.90006960933491 -0.02765795857267361 -0.03243118657622778 14.508104747018914 3.150658078261369 14.994958845128007 -72.24218549386865 9.272091123137105 -30.310535184853645 -40.58975177085113 16.400942004487096 -91.57289853045714 -26.72327409919788 -9.763410108204827 7.022875774250124 -0.4976079870287639 0.025159523179297025 -8.1250561510101 -0.01398916652322429 -0.012782803226691768 44.54748075183274 -0.02681038808849437 -0.019419790229695942 44.53839751744868 12.434020737538102 0.008724608947466423 -0.03878158323724053 -0.005514878596648742 0.016363067052652766 -0.005567062368743708 -0.014273193630940892 0.04052541021169885 0.011104438899807213 11.11134718645806 0.014764088260209078 0.01634618163128097 -0.030467266396063356 -0.021453110394994417 0.035631406973705156 0.0264991650347679 0.033876307386380256 -0.021482693474470082 4.7652326172496435 -0.03269896677010335 0.0007044957509408502 -0.049373464976336344 0.0004067157686232347 -0.03427560147042278 -0.02338577471680319 -0.020236592886237744 -0.048800469336970895 -5.627234822506051 -0.03366213799732342 -0.031046599405280595 -6.765712593569842 0.02047894979812939 -0.0006585887695042757 -6.698066568502681 -0.005599922092888573 0.001987893863737361 -0.008584797906107167 -0.040966107031608474 0.015528108699596378 8.093323352804765 3.540913884106519 -19.25138979454066 0.017475542722895438 10.436257878527373 0.05876405142654652 -5.664272356913187 -15.617122738752816 3.1948228448212133 -0.031203172411403777 -0.01177352816084202 -0.022828429488674206 0.04366159237259496 4.65393530686247 -0.021112386792522003 12.437554413500507 -8.262523863442631 6.900723741252679 -0.02167477046508638 46.341040695163166 0.02048840609022014 -4.332470468264548 -14.73591901659194 -3.842818586139467 0.005351539348276187 0.036161733844425954 0.046574421465360484 -0.021352126716320093 -10.794033391962632 -0.008765994443075386 
-0.012276429562482089 0.00596861441292039 0.04879301040195157 0.0071710771394496615 -0.024920432054303703 0.013708430388115523 5.986814125467072 1.9581288114305682 -2.404964691461846 -0.6623469507310342 3.4541481307126984 0.322879063783523 -0.49147798974442036 -1.5645094335613525 0.25695492192641767 -0.6771079103641536 -0.47470154639146533 -0.23489208760375405 -0.3924750646939636 14.906026041206832 -0.3053580721254681 0.45157212293877647 0.8161326771039571 0.8936023455776034 0.40968154804012163 -15.056444574990632 0.07521658519525937 -12.698601856344437 4.119338265897411 -17.93546187592859 82.32711349969777 -1.4438078715599216 22.116289230865974 37.47743788497259 11.794949068146506 95.74500400796992 16.342000295716943 -0.6124813435424393 -8.023808972735536 4.536875146956274 -0.12507714227800068 -1.6408078394500818 -0.023328187913802402 0.0042426283380536545 -56.267188798938626 -0.038434191693710026 0.03043594717262338 -56.24514552351762 -38.74813103992374 0.04205177363290845 0.03681010343452154 0.021235681874528164 0.0023678671817945205 -0.026505345679015573 0.019786900062941485 -0.026159796904357855 0.03793111224706085 -36.72303404729309 0.01391835790594239 0.04717059738911181 -0.014757028541214686 -0.03763808435775999 -0.01836085228322211 -0.022437565335340404 0.0027543746536608177 0.041613754333742294 -19.745459802592872 0.006715451182929058 0.017944822100450387 -0.043936971541412906 -0.01028234511925827 -0.004191525705227595 -0.034269885422697585 0.018516301555270752 0.0180757224363994 24.091273351467134 -0.03464334163543235 0.010784085243494727 28.872128746887817 0.03671685617236507 -0.049008362657079946 28.83550082049663 -0.0269093102374254 -0.04526926599035142 14.458413780866323 3.162925442390923 14.79455823132452 -72.34013598139022 10.538822852985625 -30.593218854285816 -41.400932586765094 16.158038178637845 -91.55514670341802 -27.558481805183174 -10.436507444363084 7.7728946047292276 -0.4435579653685898 0.07243838036473566 -8.112667606398825 -0.004465882643010654 0.017732851713847878 44.5296421027192 0.04648186253476807 0.0167958114599579 44.56448350729844 12.466315506283246 0.03092603629880128 0.012169023567209553 0.03398037672534179 0.013900374414719053 0.03039930285107003 -0.023422495626083117 -0.024257038431390595 0.02128382688082934 11.10242370052353 0.028377403399675236 0.0028188665724175367 -0.048048600869571766 0.03640031652526452 0.04499069873077273 0.025380495291156397 -0.02505335376249178 -0.038019168999000805 4.74359806334825 0.026832461304638774 0.026844773515863903 0.041204430329717025 0.03192507252855078 -0.004857051202969165 0.022022610587279806 -0.00021775283303994707 -0.0449195333569994 -5.619400784282399 -0.0012266295607272185 0.014887775869987088 -6.696718792723 -0.001961943437322205 0.00745088334337921 -6.719499607295533 0.0013718142361050995 0.010479002966673872 0.02572784658013043 0.017543683840695386 0.020559059744202392 8.002279443845481 3.5173637477416393 -19.249400060688274 -0.007258239585731075 10.398719392160189 0.0020583612598168467 -5.669472049157947 -15.630624871906488 3.1483852508352443 0.02440570165722995 -0.021781895381173103 -0.02440375205321222 0.03538377622952752 4.691616828833995 0.009472223907092526 12.43913142599583 -8.271544587610284 6.915782099429472 0.04348821015072917 46.354631346024966 -0.0481220091787315 -4.341563441917698 -14.738325362154276 -3.8786592928277983 -0.048961769166368185 -0.018110825898523496 0.0012520992608420277 0.01746431640849099 -10.728642810830234 0.02215994215193761 
